<mxfile host="app.diagrams.net" modified="2022-06-30T09:12:18.070Z" agent="5.0 (Windows NT 10.0; Win64; x64) AppleWebKit/537.36 (KHTML, like Gecko) Chrome/102.0.5005.124 Safari/537.36 Edg/102.0.1245.44" etag="YUToMuIpmCTov_Yuy5Da" version="18.0.2" type="github">
  <diagram id="C5RBs43oDa-KdzZeNtuy" name="Page-1">
    <mxGraphModel dx="1550" dy="867" grid="0" gridSize="10" guides="1" tooltips="1" connect="1" arrows="1" fold="1" page="1" pageScale="1" pageWidth="827" pageHeight="1169" math="0" shadow="0">
      <root>
        <mxCell id="WIyWlLk6GJQsqaUBKTNV-0" />
        <mxCell id="WIyWlLk6GJQsqaUBKTNV-1" parent="WIyWlLk6GJQsqaUBKTNV-0" />
        <mxCell id="LLp7_ZBDbSgTNzVjL1ax-18" style="edgeStyle=orthogonalEdgeStyle;rounded=0;orthogonalLoop=1;jettySize=auto;html=1;exitX=0.5;exitY=1;exitDx=0;exitDy=0;entryX=0.5;entryY=0;entryDx=0;entryDy=0;fontSize=16;" edge="1" parent="WIyWlLk6GJQsqaUBKTNV-1" source="LLp7_ZBDbSgTNzVjL1ax-0" target="LLp7_ZBDbSgTNzVjL1ax-1">
          <mxGeometry relative="1" as="geometry" />
        </mxCell>
        <mxCell id="LLp7_ZBDbSgTNzVjL1ax-0" value="&lt;font style=&quot;font-size: 16px;&quot;&gt;开始&lt;/font&gt;" style="rounded=1;whiteSpace=wrap;html=1;" vertex="1" parent="WIyWlLk6GJQsqaUBKTNV-1">
          <mxGeometry x="342" y="77" width="120" height="37" as="geometry" />
        </mxCell>
        <mxCell id="LLp7_ZBDbSgTNzVjL1ax-19" style="edgeStyle=orthogonalEdgeStyle;rounded=0;orthogonalLoop=1;jettySize=auto;html=1;entryX=0.5;entryY=0;entryDx=0;entryDy=0;fontSize=16;" edge="1" parent="WIyWlLk6GJQsqaUBKTNV-1" source="LLp7_ZBDbSgTNzVjL1ax-1" target="LLp7_ZBDbSgTNzVjL1ax-2">
          <mxGeometry relative="1" as="geometry" />
        </mxCell>
        <mxCell id="LLp7_ZBDbSgTNzVjL1ax-1" value="&lt;font style=&quot;font-size: 16px;&quot;&gt;各来源渠道数据&lt;/font&gt;" style="rounded=0;whiteSpace=wrap;html=1;" vertex="1" parent="WIyWlLk6GJQsqaUBKTNV-1">
          <mxGeometry x="317.5" y="146" width="169" height="39" as="geometry" />
        </mxCell>
        <mxCell id="LLp7_ZBDbSgTNzVjL1ax-20" style="edgeStyle=orthogonalEdgeStyle;rounded=0;orthogonalLoop=1;jettySize=auto;html=1;entryX=0.5;entryY=0;entryDx=0;entryDy=0;fontSize=16;" edge="1" parent="WIyWlLk6GJQsqaUBKTNV-1" source="LLp7_ZBDbSgTNzVjL1ax-2" target="LLp7_ZBDbSgTNzVjL1ax-11">
          <mxGeometry relative="1" as="geometry" />
        </mxCell>
        <mxCell id="LLp7_ZBDbSgTNzVjL1ax-2" value="&lt;font style=&quot;font-size: 16px;&quot;&gt;按来源渠道拆分解析不同数据&lt;br&gt;SQL关联、合并&lt;br&gt;&lt;/font&gt;" style="rounded=0;whiteSpace=wrap;html=1;" vertex="1" parent="WIyWlLk6GJQsqaUBKTNV-1">
          <mxGeometry x="281.25" y="212" width="241.5" height="70" as="geometry" />
        </mxCell>
        <mxCell id="LLp7_ZBDbSgTNzVjL1ax-26" style="edgeStyle=orthogonalEdgeStyle;rounded=0;orthogonalLoop=1;jettySize=auto;html=1;exitX=0.5;exitY=1;exitDx=0;exitDy=0;entryX=0.5;entryY=0;entryDx=0;entryDy=0;fontSize=16;" edge="1" parent="WIyWlLk6GJQsqaUBKTNV-1" source="LLp7_ZBDbSgTNzVjL1ax-3" target="LLp7_ZBDbSgTNzVjL1ax-12">
          <mxGeometry relative="1" as="geometry" />
        </mxCell>
        <mxCell id="LLp7_ZBDbSgTNzVjL1ax-3" value="&lt;font style=&quot;font-size: 16px;&quot;&gt;无效ID置空&lt;/font&gt;" style="rounded=0;whiteSpace=wrap;html=1;" vertex="1" parent="WIyWlLk6GJQsqaUBKTNV-1">
          <mxGeometry x="144" y="425" width="169" height="39" as="geometry" />
        </mxCell>
        <mxCell id="LLp7_ZBDbSgTNzVjL1ax-17" style="edgeStyle=orthogonalEdgeStyle;rounded=0;orthogonalLoop=1;jettySize=auto;html=1;entryX=0;entryY=0.5;entryDx=0;entryDy=0;fontSize=16;" edge="1" parent="WIyWlLk6GJQsqaUBKTNV-1" source="LLp7_ZBDbSgTNzVjL1ax-4" target="LLp7_ZBDbSgTNzVjL1ax-10">
          <mxGeometry relative="1" as="geometry" />
        </mxCell>
        <mxCell id="LLp7_ZBDbSgTNzVjL1ax-4" value="&lt;font style=&quot;font-size: 16px;&quot;&gt;分渠道输出结果&lt;/font&gt;" style="rounded=0;whiteSpace=wrap;html=1;" vertex="1" parent="WIyWlLk6GJQsqaUBKTNV-1">
          <mxGeometry x="365" y="721" width="136.25" height="39" as="geometry" />
        </mxCell>
        <mxCell id="LLp7_ZBDbSgTNzVjL1ax-15" style="edgeStyle=orthogonalEdgeStyle;rounded=0;orthogonalLoop=1;jettySize=auto;html=1;exitX=0.5;exitY=1;exitDx=0;exitDy=0;entryX=0.5;entryY=0;entryDx=0;entryDy=0;fontSize=16;" edge="1" parent="WIyWlLk6GJQsqaUBKTNV-1" source="LLp7_ZBDbSgTNzVjL1ax-5" target="LLp7_ZBDbSgTNzVjL1ax-6">
          <mxGeometry relative="1" as="geometry" />
        </mxCell>
        <mxCell id="LLp7_ZBDbSgTNzVjL1ax-5" value="&lt;font style=&quot;font-size: 16px;&quot;&gt;保留&lt;/font&gt;" style="rounded=0;whiteSpace=wrap;html=1;" vertex="1" parent="WIyWlLk6GJQsqaUBKTNV-1">
          <mxGeometry x="158" y="617" width="164" height="39" as="geometry" />
        </mxCell>
        <mxCell id="LLp7_ZBDbSgTNzVjL1ax-16" style="edgeStyle=orthogonalEdgeStyle;rounded=0;orthogonalLoop=1;jettySize=auto;html=1;exitX=1;exitY=0.5;exitDx=0;exitDy=0;entryX=0;entryY=0.5;entryDx=0;entryDy=0;fontSize=16;" edge="1" parent="WIyWlLk6GJQsqaUBKTNV-1" source="LLp7_ZBDbSgTNzVjL1ax-6" target="LLp7_ZBDbSgTNzVjL1ax-4">
          <mxGeometry relative="1" as="geometry" />
        </mxCell>
        <mxCell id="LLp7_ZBDbSgTNzVjL1ax-6" value="&lt;font style=&quot;font-size: 16px;&quot;&gt;聚合、去重&lt;/font&gt;" style="rounded=0;whiteSpace=wrap;html=1;" vertex="1" parent="WIyWlLk6GJQsqaUBKTNV-1">
          <mxGeometry x="176.5" y="721" width="127" height="39" as="geometry" />
        </mxCell>
        <mxCell id="LLp7_ZBDbSgTNzVjL1ax-25" style="edgeStyle=orthogonalEdgeStyle;rounded=0;orthogonalLoop=1;jettySize=auto;html=1;exitX=0.5;exitY=1;exitDx=0;exitDy=0;fontSize=16;" edge="1" parent="WIyWlLk6GJQsqaUBKTNV-1" source="LLp7_ZBDbSgTNzVjL1ax-8" target="LLp7_ZBDbSgTNzVjL1ax-12">
          <mxGeometry relative="1" as="geometry" />
        </mxCell>
        <mxCell id="LLp7_ZBDbSgTNzVjL1ax-8" value="&lt;font style=&quot;font-size: 16px;&quot;&gt;保留&lt;/font&gt;" style="rounded=0;whiteSpace=wrap;html=1;" vertex="1" parent="WIyWlLk6GJQsqaUBKTNV-1">
          <mxGeometry x="486.5" y="425" width="158.25" height="39" as="geometry" />
        </mxCell>
        <mxCell id="LLp7_ZBDbSgTNzVjL1ax-14" style="edgeStyle=orthogonalEdgeStyle;rounded=0;orthogonalLoop=1;jettySize=auto;html=1;entryX=0.5;entryY=0;entryDx=0;entryDy=0;fontSize=16;" edge="1" parent="WIyWlLk6GJQsqaUBKTNV-1" source="LLp7_ZBDbSgTNzVjL1ax-9" target="LLp7_ZBDbSgTNzVjL1ax-10">
          <mxGeometry relative="1" as="geometry" />
        </mxCell>
        <mxCell id="LLp7_ZBDbSgTNzVjL1ax-9" value="&lt;font style=&quot;font-size: 16px;&quot;&gt;去除&lt;/font&gt;" style="rounded=0;whiteSpace=wrap;html=1;" vertex="1" parent="WIyWlLk6GJQsqaUBKTNV-1">
          <mxGeometry x="521.75" y="611" width="146.5" height="39" as="geometry" />
        </mxCell>
        <mxCell id="LLp7_ZBDbSgTNzVjL1ax-10" value="&lt;font style=&quot;font-size: 16px;&quot;&gt;结束&lt;/font&gt;" style="rounded=1;whiteSpace=wrap;html=1;" vertex="1" parent="WIyWlLk6GJQsqaUBKTNV-1">
          <mxGeometry x="554" y="722" width="84" height="37" as="geometry" />
        </mxCell>
        <mxCell id="LLp7_ZBDbSgTNzVjL1ax-21" style="edgeStyle=orthogonalEdgeStyle;rounded=0;orthogonalLoop=1;jettySize=auto;html=1;fontSize=16;" edge="1" parent="WIyWlLk6GJQsqaUBKTNV-1" source="LLp7_ZBDbSgTNzVjL1ax-11">
          <mxGeometry relative="1" as="geometry">
            <mxPoint x="220" y="422" as="targetPoint" />
          </mxGeometry>
        </mxCell>
        <mxCell id="LLp7_ZBDbSgTNzVjL1ax-23" value="否" style="edgeLabel;html=1;align=center;verticalAlign=middle;resizable=0;points=[];fontSize=16;" vertex="1" connectable="0" parent="LLp7_ZBDbSgTNzVjL1ax-21">
          <mxGeometry x="-0.2917" y="-3" relative="1" as="geometry">
            <mxPoint x="10" y="-11" as="offset" />
          </mxGeometry>
        </mxCell>
        <mxCell id="LLp7_ZBDbSgTNzVjL1ax-22" style="edgeStyle=orthogonalEdgeStyle;rounded=0;orthogonalLoop=1;jettySize=auto;html=1;exitX=1;exitY=0.5;exitDx=0;exitDy=0;entryX=0.611;entryY=0.051;entryDx=0;entryDy=0;entryPerimeter=0;fontSize=16;" edge="1" parent="WIyWlLk6GJQsqaUBKTNV-1" source="LLp7_ZBDbSgTNzVjL1ax-11" target="LLp7_ZBDbSgTNzVjL1ax-8">
          <mxGeometry relative="1" as="geometry" />
        </mxCell>
        <mxCell id="LLp7_ZBDbSgTNzVjL1ax-11" value="判断是否为有效ID" style="rhombus;whiteSpace=wrap;html=1;fontSize=16;" vertex="1" parent="WIyWlLk6GJQsqaUBKTNV-1">
          <mxGeometry x="283.25" y="312.5" width="237.5" height="84" as="geometry" />
        </mxCell>
        <mxCell id="LLp7_ZBDbSgTNzVjL1ax-27" style="edgeStyle=orthogonalEdgeStyle;rounded=0;orthogonalLoop=1;jettySize=auto;html=1;exitX=0;exitY=0.5;exitDx=0;exitDy=0;entryX=0.5;entryY=0;entryDx=0;entryDy=0;fontSize=16;" edge="1" parent="WIyWlLk6GJQsqaUBKTNV-1" source="LLp7_ZBDbSgTNzVjL1ax-12" target="LLp7_ZBDbSgTNzVjL1ax-5">
          <mxGeometry relative="1" as="geometry" />
        </mxCell>
        <mxCell id="LLp7_ZBDbSgTNzVjL1ax-28" style="edgeStyle=orthogonalEdgeStyle;rounded=0;orthogonalLoop=1;jettySize=auto;html=1;exitX=1;exitY=0.5;exitDx=0;exitDy=0;fontSize=16;" edge="1" parent="WIyWlLk6GJQsqaUBKTNV-1" source="LLp7_ZBDbSgTNzVjL1ax-12" target="LLp7_ZBDbSgTNzVjL1ax-9">
          <mxGeometry relative="1" as="geometry" />
        </mxCell>
        <mxCell id="LLp7_ZBDbSgTNzVjL1ax-12" value="判断是否存在无效行&lt;br&gt;（全空或业务规则判断）" style="rhombus;whiteSpace=wrap;html=1;fontSize=16;" vertex="1" parent="WIyWlLk6GJQsqaUBKTNV-1">
          <mxGeometry x="283.25" y="505" width="237.5" height="102" as="geometry" />
        </mxCell>
        <mxCell id="LLp7_ZBDbSgTNzVjL1ax-24" value="是" style="text;html=1;align=center;verticalAlign=middle;resizable=0;points=[];autosize=1;strokeColor=none;fillColor=none;fontSize=16;" vertex="1" parent="WIyWlLk6GJQsqaUBKTNV-1">
          <mxGeometry x="540" y="327" width="26" height="23" as="geometry" />
        </mxCell>
        <mxCell id="LLp7_ZBDbSgTNzVjL1ax-29" value="否" style="edgeLabel;html=1;align=center;verticalAlign=middle;resizable=0;points=[];fontSize=16;" vertex="1" connectable="0" parent="WIyWlLk6GJQsqaUBKTNV-1">
          <mxGeometry x="263" y="350" as="geometry">
            <mxPoint x="3" y="190" as="offset" />
          </mxGeometry>
        </mxCell>
        <mxCell id="LLp7_ZBDbSgTNzVjL1ax-30" value="是" style="text;html=1;align=center;verticalAlign=middle;resizable=0;points=[];autosize=1;strokeColor=none;fillColor=none;fontSize=16;" vertex="1" parent="WIyWlLk6GJQsqaUBKTNV-1">
          <mxGeometry x="547" y="526" width="26" height="23" as="geometry" />
        </mxCell>
      </root>
    </mxGraphModel>
  </diagram>
</mxfile>
